<?xml version="1.0" standalone="no"?>
<!DOCTYPE svg PUBLIC "-//W3C//DTD SVG 20010904//EN"
 "http://www.w3.org/TR/2001/REC-SVG-20010904/DTD/svg10.dtd">
<svg version="1.0" xmlns="http://www.w3.org/2000/svg"
 width="512.000000pt" height="512.000000pt" viewBox="0 0 512.000000 512.000000"
 preserveAspectRatio="xMidYMid meet">
<metadata>
Created by potrace 1.14, written by Peter Selinger 2001-2017
</metadata>
<g transform="translate(0.000000,512.000000) scale(0.100000,-0.100000)"
fill="#000000" stroke="none">
<path d="M2550 4879 c-34 -13 -96 -24 -165 -29 -132 -10 -248 -44 -320 -95
-160 -112 -210 -170 -248 -289 -18 -59 -22 -93 -21 -203 0 -73 -2 -133 -5
-133 -3 0 -76 14 -161 31 -209 43 -380 46 -453 10 -61 -30 -141 -102 -172
-155 -104 -178 5 -342 273 -408 106 -26 294 -29 387 -7 l60 15 1 -150 c0 -137
3 -158 27 -226 90 -250 296 -435 549 -495 81 -19 243 -19 333 0 129 27 293
121 383 219 87 95 158 227 187 348 17 71 20 251 5 315 -7 31 -6 52 6 85 65
183 92 440 60 588 -32 151 -129 303 -243 381 -24 17 -76 46 -116 66 -40 20
-95 57 -123 82 -79 73 -147 86 -244 50z m-83 -193 c108 -34 191 -113 234 -223
31 -81 37 -240 15 -352 -23 -111 -59 -207 -78 -203 -8 1 -115 31 -239 66 -123
34 -293 80 -376 101 l-153 37 -2 52 c-10 301 70 465 259 527 48 16 78 19 173
15 65 -2 137 -11 167 -20z m402 -949 c112 -41 115 -43 129 -82 20 -56 27 -227
12 -298 -39 -191 -203 -360 -400 -412 -70 -19 -210 -19 -280 0 -185 49 -334
192 -391 375 -31 97 -28 245 6 347 3 8 16 8 51 -3 198 -59 443 -31 644 75 41
22 84 40 95 40 11 0 71 -19 134 -42z"/>
<path d="M2169 4508 c-67 -93 -160 -315 -146 -350 11 -29 427 -87 427 -59 0 5
-42 30 -93 55 -69 35 -113 49 -174 58 -81 12 -82 12 -76 37 21 89 90 221 115
221 7 0 31 -11 53 -25 49 -30 59 -31 44 -4 -18 35 -90 109 -105 109 -8 0 -28
-19 -45 -42z"/>
<path d="M1653 2534 c-139 -30 -302 -119 -408 -221 -79 -75 -232 -300 -530
-778 -134 -216 -180 -308 -201 -403 -18 -86 -18 -134 1 -207 33 -126 61 -162
353 -457 175 -176 291 -285 321 -302 93 -50 223 -51 321 -1 l47 24 7 -61 c3
-34 6 -76 6 -95 l0 -33 897 2 c789 3 898 5 900 18 1 8 5 50 8 92 l7 76 50 -25
c96 -48 227 -47 319 4 30 16 146 125 322 302 251 252 277 282 310 351 68 139
69 264 4 425 -60 149 -559 924 -671 1043 -116 122 -279 214 -438 246 -66 14
-182 16 -820 15 -589 -1 -756 -4 -805 -15z m478 -655 l196 -471 -74 -196 c-48
-127 -72 -204 -68 -219 7 -29 22 -37 192 -94 158 -53 180 -53 206 -2 8 15 51
128 97 251 78 211 81 223 66 246 -9 14 -36 31 -66 41 -28 9 -50 20 -48 25 2 4
86 206 187 449 l184 441 93 0 c123 0 181 -13 289 -65 141 -69 192 -122 359
-374 194 -292 413 -643 447 -716 63 -134 59 -233 -15 -332 -61 -81 -505 -519
-539 -532 -45 -17 -87 -13 -132 14 -74 43 -98 138 -52 207 13 19 114 123 225
232 110 109 208 213 217 233 10 21 14 45 10 61 -6 22 -377 543 -428 599 -41
46 -129 35 -158 -19 -6 -11 -20 -116 -30 -232 -10 -116 -30 -341 -44 -501 -14
-159 -29 -337 -35 -395 -5 -58 -14 -161 -20 -230 -6 -69 -13 -140 -16 -158
l-5 -32 -702 2 -702 3 -6 70 c-4 39 -12 129 -18 200 -80 925 -112 1257 -122
1276 -12 24 -61 49 -93 49 -14 0 -39 -12 -55 -27 -40 -38 -430 -572 -437 -600
-14 -50 8 -78 231 -303 122 -124 228 -235 234 -247 32 -63 -5 -160 -74 -193
-49 -24 -84 -25 -128 -6 -18 7 -148 130 -289 273 -269 271 -291 299 -304 396
-7 51 14 133 53 212 37 73 305 499 455 722 145 216 204 278 328 342 100 52
171 69 295 70 l100 1 196 -471z m649 464 c0 -14 -305 -743 -310 -743 -3 0 -62
134 -130 298 -68 163 -138 332 -156 375 l-33 77 314 0 c173 0 315 -3 315 -7z
m-1305 -1213 c8 -102 18 -210 21 -240 l6 -55 -116 115 c-64 63 -116 118 -116
122 0 12 184 261 187 252 1 -5 9 -92 18 -194z m2109 66 c47 -65 86 -121 86
-125 0 -3 -52 -58 -116 -121 l-116 -115 7 80 c4 44 13 147 21 229 8 82 14 158
14 169 0 26 0 27 104 -117z"/>
</g>
</svg>
