<?xml version="1.0" standalone="no"?>
<!DOCTYPE svg PUBLIC "-//W3C//DTD SVG 20010904//EN"
 "http://www.w3.org/TR/2001/REC-SVG-20010904/DTD/svg10.dtd">
<svg version="1.0" xmlns="http://www.w3.org/2000/svg"
 width="1750.000000pt" height="1750.000000pt" viewBox="0 0 1750.000000 1750.000000"
 preserveAspectRatio="xMidYMid meet">
<metadata>
Created by potrace 1.14, written by Peter Selinger 2001-2017
</metadata>
<g transform="translate(0.000000,1750.000000) scale(0.100000,-0.100000)"
fill="#000000" stroke="none">
<path d="M8895 16720 c-94 -15 -185 -46 -293 -100 l-100 -50 -163 0 c-625 0
-1107 -155 -1487 -476 -45 -38 -113 -91 -152 -118 -94 -66 -227 -206 -296
-311 -113 -174 -186 -361 -231 -594 -45 -235 -43 -729 4 -962 l5 -28 -58 14
c-141 33 -555 117 -734 149 -736 133 -1074 134 -1350 5 -280 -131 -514 -360
-641 -624 -68 -143 -83 -206 -83 -355 0 -108 4 -136 27 -205 37 -112 89 -194
184 -295 161 -170 381 -298 644 -374 566 -163 1101 -178 1628 -45 63 16 116
27 117 26 2 -2 -4 -41 -12 -87 -21 -118 -30 -508 -15 -652 91 -867 614 -1627
1391 -2023 245 -124 459 -195 747 -247 114 -20 160 -23 413 -23 253 0 299 3
413 23 290 52 501 123 750 249 621 316 1098 888 1295 1555 72 241 102 457 102
730 0 208 -9 305 -46 500 l-26 138 50 152 c444 1334 316 2411 -364 3080 -123
120 -197 180 -347 278 -128 85 -302 174 -467 239 -105 42 -105 42 -169 122
-111 140 -279 253 -436 294 -76 20 -222 27 -300 15z m-760 -629 c223 -33 372
-78 529 -159 332 -170 562 -488 646 -894 31 -151 40 -251 40 -448 0 -336 -51
-636 -164 -966 -49 -143 -120 -304 -133 -304 -5 0 -130 36 -278 81 -701 209
-1458 414 -2123 574 -145 34 -265 64 -266 66 -2 2 -9 70 -15 150 -44 576 49
1052 274 1400 56 87 225 259 308 313 171 111 386 183 632 210 92 10 424 -4
550 -23z m1577 -3270 c205 -71 401 -140 435 -152 l61 -22 45 -136 c81 -244
110 -465 95 -739 -15 -294 -117 -613 -279 -879 -135 -220 -346 -438 -569 -587
-440 -295 -1011 -393 -1529 -262 -632 160 -1144 636 -1347 1251 -126 385 -129
802 -8 1185 26 84 39 110 50 106 48 -18 195 -59 294 -82 553 -124 1106 -90
1645 103 211 75 531 229 665 319 19 13 42 24 52 24 9 0 185 -58 390 -129z"/>
<path d="M7491 15484 c-142 -155 -339 -518 -465 -857 -46 -123 -103 -320 -112
-385 -5 -43 -4 -51 12 -55 71 -21 694 -128 949 -162 199 -27 495 -45 495 -29
0 16 -182 128 -335 205 -263 132 -482 190 -727 193 -127 1 -148 3 -148 17 0
24 65 254 99 350 81 228 162 378 258 477 51 52 66 62 85 57 47 -13 166 -76
253 -134 49 -33 92 -58 94 -55 7 7 -122 192 -189 271 -66 78 -171 163 -200
163 -10 0 -41 -25 -69 -56z"/>
<path d="M6350 8699 c-475 -6 -528 -11 -770 -70 -490 -120 -992 -407 -1360
-778 -153 -154 -244 -274 -562 -741 -433 -638 -1494 -2322 -1654 -2625 -108
-206 -198 -449 -238 -645 -100 -491 24 -951 375 -1388 34 -42 441 -456 903
-919 738 -738 852 -848 931 -899 359 -232 805 -252 1195 -53 41 21 95 51 120
68 24 17 45 29 47 28 1 -2 14 -133 28 -292 14 -160 28 -311 31 -337 l6 -48
3038 0 3038 0 6 48 c3 26 17 177 31 337 14 159 27 290 28 292 2 1 23 -11 47
-28 119 -80 306 -156 457 -185 118 -23 320 -23 437 0 181 35 338 105 484 216
91 69 1680 1659 1771 1772 305 380 442 790 402 1198 -29 287 -130 590 -298
895 -118 214 -799 1305 -1248 2000 -118 183 -475 714 -570 850 -222 315 -319
428 -510 592 -458 395 -1007 642 -1560 703 -110 12 -3810 19 -4605 9z m947
-2262 l674 -1617 -246 -658 c-188 -499 -247 -668 -247 -702 0 -98 54 -164 165
-203 40 -14 264 -91 498 -171 362 -124 434 -146 485 -146 69 0 122 26 165 80
18 23 125 298 318 814 308 824 310 832 278 909 -28 67 -81 99 -255 158 -89 29
-162 56 -162 60 0 3 290 700 644 1550 l643 1544 279 -1 c154 -1 322 -7 374
-14 387 -49 767 -216 1105 -486 155 -125 271 -247 389 -410 308 -425 965
-1443 1681 -2599 238 -385 341 -604 391 -831 25 -115 23 -314 -4 -419 -28
-106 -106 -259 -189 -370 -81 -110 -1634 -1672 -1732 -1742 -241 -174 -564
-121 -746 123 -120 160 -137 386 -43 568 27 52 144 174 773 806 408 410 749
757 758 771 49 80 57 198 20 291 -9 23 -145 218 -302 432 -156 215 -387 533
-512 706 -126 173 -252 347 -281 385 -28 39 -118 160 -200 271 -186 253 -225
283 -375 284 -144 0 -265 -82 -307 -210 -10 -30 -91 -905 -241 -2600 -124
-1405 -227 -2574 -231 -2598 l-5 -42 -2419 0 -2418 0 -6 38 c-3 20 -8 66 -11
102 -169 1967 -449 5065 -461 5100 -30 90 -118 175 -209 200 -27 8 -76 11
-122 8 -87 -5 -140 -27 -195 -80 -50 -48 -1408 -1913 -1441 -1979 -40 -79 -45
-149 -17 -240 l22 -74 753 -755 c730 -733 754 -757 788 -830 45 -95 61 -179
54 -278 -10 -144 -83 -283 -198 -377 -190 -157 -452 -166 -650 -22 -98 70
-1651 1632 -1732 1742 -83 111 -161 264 -189 370 -27 105 -29 304 -4 419 41
184 139 415 266 626 298 496 1055 1687 1415 2230 351 529 464 684 582 804 296
299 683 526 1063 621 194 49 348 63 684 61 l208 -1 675 -1618z m2249 1606
c-35 -94 -1102 -2643 -1106 -2643 -4 0 -1071 2549 -1106 2643 -6 16 51 17
1106 17 1055 0 1112 -1 1106 -17z m-4475 -4335 c43 -486 79 -890 79 -898 0 -8
-191 176 -425 410 -234 234 -425 429 -425 434 0 4 53 81 118 170 111 150 317
433 492 673 41 56 76 100 79 98 2 -3 39 -402 82 -887z m6959 707 c68 -93 219
-302 337 -462 117 -161 213 -296 213 -300 0 -5 -191 -199 -425 -433 -234 -234
-425 -420 -425 -415 0 24 151 1734 156 1764 3 18 9 30 13 25 4 -5 63 -85 131
-179z"/>
<path d="M9367 1833 c-12 -11 -8 -23 8 -23 8 0 15 7 15 15 0 16 -12 20 -23 8z"/>
</g>
</svg>
